<mxfile host="app.diagrams.net" modified="2022-06-15T14:17:43.480Z" agent="5.0 (Windows NT 10.0; Win64; x64) AppleWebKit/537.36 (KHTML, like Gecko) Chrome/102.0.0.0 Safari/537.36" etag="Es4ZXRmUKvrJDeRPLT0n" version="20.0.1" type="github">
  <diagram id="Qfw5KqlO8cd22jr_XHpM" name="Page-1">
    <mxGraphModel dx="1408" dy="808" grid="1" gridSize="10" guides="1" tooltips="1" connect="1" arrows="1" fold="1" page="1" pageScale="1" pageWidth="850" pageHeight="1100" math="0" shadow="0">
      <root>
        <mxCell id="0" />
        <mxCell id="1" parent="0" />
        <mxCell id="nmVyjJnILzeaegPNqzHL-2" value="AWS Cloud" style="points=[[0,0],[0.25,0],[0.5,0],[0.75,0],[1,0],[1,0.25],[1,0.5],[1,0.75],[1,1],[0.75,1],[0.5,1],[0.25,1],[0,1],[0,0.75],[0,0.5],[0,0.25]];outlineConnect=0;gradientColor=none;html=1;whiteSpace=wrap;fontSize=12;fontStyle=0;container=1;pointerEvents=0;collapsible=0;recursiveResize=0;shape=mxgraph.aws4.group;grIcon=mxgraph.aws4.group_aws_cloud;strokeColor=#232F3E;fillColor=none;verticalAlign=top;align=left;spacingLeft=30;fontColor=#232F3E;dashed=0;" vertex="1" parent="1">
          <mxGeometry x="40" y="40" width="680" height="640" as="geometry" />
        </mxCell>
        <mxCell id="nmVyjJnILzeaegPNqzHL-7" value="YOUR VPC BUILT FROM COMPONENTS" style="points=[[0,0],[0.25,0],[0.5,0],[0.75,0],[1,0],[1,0.25],[1,0.5],[1,0.75],[1,1],[0.75,1],[0.5,1],[0.25,1],[0,1],[0,0.75],[0,0.5],[0,0.25]];outlineConnect=0;gradientColor=none;html=1;whiteSpace=wrap;fontSize=12;fontStyle=0;container=1;pointerEvents=0;collapsible=0;recursiveResize=0;shape=mxgraph.aws4.group;grIcon=mxgraph.aws4.group_vpc;strokeColor=#248814;fillColor=none;verticalAlign=top;align=left;spacingLeft=30;fontColor=#AAB7B8;dashed=0;" vertex="1" parent="nmVyjJnILzeaegPNqzHL-2">
          <mxGeometry x="40" y="40" width="600" height="560" as="geometry" />
        </mxCell>
        <mxCell id="nmVyjJnILzeaegPNqzHL-8" value="Public subnet" style="points=[[0,0],[0.25,0],[0.5,0],[0.75,0],[1,0],[1,0.25],[1,0.5],[1,0.75],[1,1],[0.75,1],[0.5,1],[0.25,1],[0,1],[0,0.75],[0,0.5],[0,0.25]];outlineConnect=0;gradientColor=none;html=1;whiteSpace=wrap;fontSize=12;fontStyle=0;container=1;pointerEvents=0;collapsible=0;recursiveResize=0;shape=mxgraph.aws4.group;grIcon=mxgraph.aws4.group_security_group;grStroke=0;strokeColor=#248814;fillColor=#E9F3E6;verticalAlign=top;align=left;spacingLeft=30;fontColor=#248814;dashed=0;" vertex="1" parent="nmVyjJnILzeaegPNqzHL-7">
          <mxGeometry x="40" y="80" width="200" height="200" as="geometry" />
        </mxCell>
        <mxCell id="nmVyjJnILzeaegPNqzHL-6" value="" style="sketch=0;outlineConnect=0;fontColor=#232F3E;gradientColor=none;fillColor=#4D27AA;strokeColor=none;dashed=0;verticalLabelPosition=bottom;verticalAlign=top;align=center;html=1;fontSize=12;fontStyle=0;aspect=fixed;pointerEvents=1;shape=mxgraph.aws4.nat_gateway;" vertex="1" parent="nmVyjJnILzeaegPNqzHL-8">
          <mxGeometry x="61" y="61" width="78" height="78" as="geometry" />
        </mxCell>
        <UserObject label="NAT Gateway" placeholders="1" name="Variable" id="nmVyjJnILzeaegPNqzHL-16">
          <mxCell style="text;html=1;strokeColor=none;fillColor=none;align=center;verticalAlign=middle;whiteSpace=wrap;overflow=hidden;" vertex="1" parent="nmVyjJnILzeaegPNqzHL-8">
            <mxGeometry x="39.5" y="150" width="121" height="20" as="geometry" />
          </mxCell>
        </UserObject>
        <mxCell id="nmVyjJnILzeaegPNqzHL-9" value="Private subnet" style="points=[[0,0],[0.25,0],[0.5,0],[0.75,0],[1,0],[1,0.25],[1,0.5],[1,0.75],[1,1],[0.75,1],[0.5,1],[0.25,1],[0,1],[0,0.75],[0,0.5],[0,0.25]];outlineConnect=0;gradientColor=none;html=1;whiteSpace=wrap;fontSize=12;fontStyle=0;container=1;pointerEvents=0;collapsible=0;recursiveResize=0;shape=mxgraph.aws4.group;grIcon=mxgraph.aws4.group_security_group;grStroke=0;strokeColor=#147EBA;fillColor=#E6F2F8;verticalAlign=top;align=left;spacingLeft=30;fontColor=#147EBA;dashed=0;" vertex="1" parent="nmVyjJnILzeaegPNqzHL-7">
          <mxGeometry x="360" y="80" width="200" height="200" as="geometry" />
        </mxCell>
        <mxCell id="nmVyjJnILzeaegPNqzHL-4" value="" style="sketch=0;outlineConnect=0;fontColor=#232F3E;gradientColor=none;fillColor=#4D27AA;strokeColor=none;dashed=0;verticalLabelPosition=bottom;verticalAlign=top;align=center;html=1;fontSize=12;fontStyle=0;aspect=fixed;pointerEvents=1;shape=mxgraph.aws4.route_table;" vertex="1" parent="nmVyjJnILzeaegPNqzHL-7">
          <mxGeometry x="421" y="320" width="78" height="76" as="geometry" />
        </mxCell>
        <mxCell id="nmVyjJnILzeaegPNqzHL-3" value="" style="sketch=0;outlineConnect=0;fontColor=#232F3E;gradientColor=none;fillColor=#4D27AA;strokeColor=none;dashed=0;verticalLabelPosition=bottom;verticalAlign=top;align=center;html=1;fontSize=12;fontStyle=0;aspect=fixed;pointerEvents=1;shape=mxgraph.aws4.route_table;" vertex="1" parent="nmVyjJnILzeaegPNqzHL-7">
          <mxGeometry x="101" y="320" width="78" height="76" as="geometry" />
        </mxCell>
        <mxCell id="nmVyjJnILzeaegPNqzHL-5" value="" style="sketch=0;outlineConnect=0;fontColor=#232F3E;gradientColor=none;fillColor=#4D27AA;strokeColor=none;dashed=0;verticalLabelPosition=bottom;verticalAlign=top;align=center;html=1;fontSize=12;fontStyle=0;aspect=fixed;pointerEvents=1;shape=mxgraph.aws4.internet_gateway;" vertex="1" parent="nmVyjJnILzeaegPNqzHL-7">
          <mxGeometry x="256" y="460" width="78" height="78" as="geometry" />
        </mxCell>
        <mxCell id="nmVyjJnILzeaegPNqzHL-10" value="" style="sketch=0;outlineConnect=0;fontColor=#232F3E;gradientColor=none;fillColor=#4D27AA;strokeColor=none;dashed=0;verticalLabelPosition=bottom;verticalAlign=top;align=center;html=1;fontSize=12;fontStyle=0;aspect=fixed;pointerEvents=1;shape=mxgraph.aws4.customer_gateway;" vertex="1" parent="nmVyjJnILzeaegPNqzHL-7">
          <mxGeometry x="270" y="333" width="50" height="50" as="geometry" />
        </mxCell>
        <UserObject label="Public Route Table" placeholders="1" name="Variable" id="nmVyjJnILzeaegPNqzHL-12">
          <mxCell style="text;html=1;strokeColor=none;fillColor=none;align=center;verticalAlign=middle;whiteSpace=wrap;overflow=hidden;" vertex="1" parent="nmVyjJnILzeaegPNqzHL-7">
            <mxGeometry x="79.5" y="410" width="121" height="20" as="geometry" />
          </mxCell>
        </UserObject>
        <UserObject label="Private Route Table" placeholders="1" name="Variable" id="nmVyjJnILzeaegPNqzHL-13">
          <mxCell style="text;html=1;strokeColor=none;fillColor=none;align=center;verticalAlign=middle;whiteSpace=wrap;overflow=hidden;" vertex="1" parent="nmVyjJnILzeaegPNqzHL-7">
            <mxGeometry x="399.5" y="410" width="121" height="20" as="geometry" />
          </mxCell>
        </UserObject>
        <UserObject label="(Router)" placeholders="1" name="Variable" id="nmVyjJnILzeaegPNqzHL-15">
          <mxCell style="text;html=1;strokeColor=none;fillColor=none;align=center;verticalAlign=middle;whiteSpace=wrap;overflow=hidden;" vertex="1" parent="nmVyjJnILzeaegPNqzHL-7">
            <mxGeometry x="234.5" y="300" width="121" height="20" as="geometry" />
          </mxCell>
        </UserObject>
        <mxCell id="nmVyjJnILzeaegPNqzHL-17" value="" style="edgeStyle=orthogonalEdgeStyle;html=1;endArrow=none;elbow=vertical;startArrow=block;startFill=1;strokeColor=#545B64;rounded=0;" edge="1" parent="nmVyjJnILzeaegPNqzHL-7" source="nmVyjJnILzeaegPNqzHL-6" target="nmVyjJnILzeaegPNqzHL-4">
          <mxGeometry width="100" relative="1" as="geometry">
            <mxPoint x="260" y="179.76" as="sourcePoint" />
            <mxPoint x="280" y="180" as="targetPoint" />
          </mxGeometry>
        </mxCell>
        <mxCell id="nmVyjJnILzeaegPNqzHL-18" value="" style="edgeStyle=orthogonalEdgeStyle;html=1;endArrow=none;elbow=vertical;startArrow=block;startFill=1;strokeColor=#545B64;rounded=0;" edge="1" parent="nmVyjJnILzeaegPNqzHL-7">
          <mxGeometry width="100" relative="1" as="geometry">
            <mxPoint x="321" y="357.71" as="sourcePoint" />
            <mxPoint x="421" y="357.71" as="targetPoint" />
            <Array as="points">
              <mxPoint x="371" y="357.71" />
              <mxPoint x="371" y="357.71" />
            </Array>
          </mxGeometry>
        </mxCell>
        <mxCell id="nmVyjJnILzeaegPNqzHL-19" value="" style="edgeStyle=orthogonalEdgeStyle;html=1;endArrow=block;elbow=vertical;startArrow=none;endFill=1;strokeColor=#545B64;rounded=0;" edge="1" parent="nmVyjJnILzeaegPNqzHL-7" source="nmVyjJnILzeaegPNqzHL-3">
          <mxGeometry width="100" relative="1" as="geometry">
            <mxPoint x="170" y="357.71" as="sourcePoint" />
            <mxPoint x="270" y="357.71" as="targetPoint" />
          </mxGeometry>
        </mxCell>
        <mxCell id="nmVyjJnILzeaegPNqzHL-20" value="" style="edgeStyle=orthogonalEdgeStyle;html=1;endArrow=none;elbow=vertical;startArrow=block;startFill=1;strokeColor=#545B64;rounded=0;" edge="1" parent="nmVyjJnILzeaegPNqzHL-7" source="nmVyjJnILzeaegPNqzHL-5" target="nmVyjJnILzeaegPNqzHL-6">
          <mxGeometry width="100" relative="1" as="geometry">
            <mxPoint x="1" y="357.5" as="sourcePoint" />
            <mxPoint x="101" y="357.5" as="targetPoint" />
            <Array as="points">
              <mxPoint x="60" y="499" />
              <mxPoint x="60" y="180" />
            </Array>
          </mxGeometry>
        </mxCell>
        <mxCell id="nmVyjJnILzeaegPNqzHL-21" value="" style="edgeStyle=orthogonalEdgeStyle;html=1;endArrow=none;elbow=vertical;startArrow=block;startFill=1;strokeColor=#545B64;rounded=0;" edge="1" parent="nmVyjJnILzeaegPNqzHL-7" source="nmVyjJnILzeaegPNqzHL-5" target="nmVyjJnILzeaegPNqzHL-10">
          <mxGeometry width="100" relative="1" as="geometry">
            <mxPoint x="280" y="410" as="sourcePoint" />
            <mxPoint x="380" y="410" as="targetPoint" />
          </mxGeometry>
        </mxCell>
        <UserObject label="Internet Gateway" placeholders="1" name="Variable" id="nmVyjJnILzeaegPNqzHL-14">
          <mxCell style="text;html=1;strokeColor=none;fillColor=none;align=center;verticalAlign=middle;whiteSpace=wrap;overflow=hidden;" vertex="1" parent="nmVyjJnILzeaegPNqzHL-2">
            <mxGeometry x="279.5" y="610" width="121" height="20" as="geometry" />
          </mxCell>
        </UserObject>
      </root>
    </mxGraphModel>
  </diagram>
</mxfile>
